OpenSim_Sub09_CSBaseline_LCS.mot
version=1
nRows=26
nColumns=11
inDegrees=no
endheader
time	Bot_Shank	2nd_Bot_Shank	2nd_Top_Shank	Top_Shank	Bot_Thigh	Med_Thigh	Top_Thigh	BNOx	BNOy	BNOZ
0	10525.67501811	10724.08933817	11372.36842975	10902.51312251	13380.01886982	14572.17096638	15340.87024288	9.78704246	-74.87069996	140.14183097
0.01000000	10525.85143585	10724.31506579	11372.13502171	10904.59656228	13379.52727704	14573.35099301	15340.62062580	9.77404753	-74.86842545	140.19313509
0.02000000	10526.22746022	10724.68082397	11371.71018197	10906.71670762	13378.87772696	14574.47742440	15340.29492864	9.76047690	-74.86792509	140.24781125
0.03000000	10526.75938034	10725.19786129	11371.18982417	10908.82826684	13378.22864199	14575.52264728	15339.93319900	9.74601182	-74.86896858	140.30522698
0.04000000	10527.40348535	10725.87742633	11370.66986196	10910.88594824	13377.73844455	14576.45904839	15339.57548444	9.73033353	-74.87132563	140.36474979
0.05000000	10528.11606438	10726.73076767	11370.24620898	10912.84446014	13377.56555707	14577.25901446	15339.26183255	9.71312328	-74.87476595	140.42574719
0.06000000	10528.85340655	10727.76913389	11370.01477888	10914.65851087	13377.86840196	14577.89493221	15339.03229091	9.69406233	-74.87905925	140.48758670
0.07000000	10529.57401397	10728.99998945	11370.06085936	10916.28932931	13378.78777118	14578.34505668	15338.92190317	9.67289220	-74.88398676	140.54969052
0.08000000	10530.25274412	10730.40283162	11370.39120590	10917.74633566	13380.33415634	14578.63101312	15338.92873083	9.64980005	-74.88941484	140.61188497
0.09000000	10530.87178499	10731.94462277	11370.97737555	10919.06054955	13382.45964809	14578.79386550	15339.03425991	9.62517272	-74.89524802	140.67417752
0.10000000	10531.41335914	10733.59226609	11371.79075935	10920.26309252	13385.11606160	14578.87476948	15339.21989821	9.59939802	-74.90139099	140.73657646
0.11000000	10531.85968915	10735.31266482	11372.80274835	10921.38508609	13388.25521205	14578.91488069	15339.46705355	9.57286375	-74.90774847	140.79909011
0.12000000	10532.19299758	10737.07272215	11373.98473358	10922.45765181	13391.82891459	14578.95535479	15339.75713375	9.54595770	-74.91422516	140.86172678
0.13000000	10532.39550700	10738.83934131	11375.30810608	10923.51191119	13395.78898440	14579.03734743	15340.07154662	9.51906767	-74.92072576	140.92449478
0.14000000	10532.44943998	10740.57942552	11376.74425688	10924.57898577	13400.08723666	14579.20201426	15340.39169998	9.49258147	-74.92715496	140.98740243
0.15000000	10532.33701908	10742.25987797	11378.26457703	10925.68999709	13404.67548651	14579.49051093	15340.69900165	9.46688688	-74.93341748	141.05045803
0.16000000	10532.04046687	10743.84760190	11379.84045757	10926.87606666	13409.50554915	14579.94399309	15340.97485943	9.44237172	-74.93941802	141.11366990
0.17000000	10531.55014860	10745.31509353	11381.44541976	10928.16990572	13414.50886114	14580.59096596	15341.20080229	9.41933435	-74.94509551	141.17703885
0.18000000	10530.90047141	10746.66510045	11383.06450685	10929.61282380	13419.50663578	14581.39151139	15341.35901434	9.39758948	-74.95057394	141.24052518
0.19000000	10530.14066458	10747.91055122	11384.68663973	10931.24902416	13424.28299116	14582.28268363	15341.43190021	9.37678905	-74.95603963	141.30407554
0.20000000	10529.31996853	10749.06438209	11386.30074225	10933.12271225	13428.62201744	14583.20151959	15341.40186469	9.35658487	-74.96167893	141.36763659
0.21000000	10528.48762372	10750.13952929	11387.89573822	10935.27809349	13432.30780476	14584.08505617	15341.25131256	9.33662874	-74.96767818	141.43115497
0.22000000	10527.69287058	10751.14892905	11389.46055148	10937.75937335	13435.12444329	14584.87033026	15340.96264862	9.31657247	-74.97422375	141.49457732
0.23000000	10526.98494955	10752.10551761	11390.98410585	10940.61075724	13436.85602316	14585.49437876	15340.51827767	9.29606788	-74.98150196	141.55785030
0.24000000	10526.41310107	10753.02223122	11392.45532516	10943.87645063	13437.28663452	14585.89423859	15339.90060447	9.27476676	-74.98969919	141.62092055
0.25000000	10526.02656558	10753.91200610	11393.86313324	10947.60065894	13436.20036754	14586.00694662	15339.09203384	9.25232095	-74.99900177	141.68373472
